<?xml version="1.0" standalone="no"?>
<!DOCTYPE svg PUBLIC "-//W3C//DTD SVG 20010904//EN"
 "http://www.w3.org/TR/2001/REC-SVG-20010904/DTD/svg10.dtd">
<svg version="1.0" xmlns="http://www.w3.org/2000/svg"
 width="500.000000pt" height="487.000000pt" viewBox="0 0 500.000000 487.000000"
 preserveAspectRatio="xMidYMid meet">
<metadata>
Created by potrace 1.15, written by Peter Selinger 2001-2017
</metadata>
<g transform="translate(0.000000,487.000000) scale(0.100000,-0.100000)"
fill="#000000" stroke="none">
<path d="M0 2435 l0 -2435 2500 0 2500 0 0 2435 0 2435 -2500 0 -2500 0 0
-2435z m3093 1951 c224 -25 412 -48 417 -51 6 -3 10 -11 10 -16 0 -6 -201
-304 -447 -662 l-448 -651 -3 700 c-1 384 0 705 3 712 6 17 18 17 468 -32z
m-1089 -424 c7 -12 188 -1012 184 -1022 -4 -12 -499 472 -498 486 0 7 54 115
121 240 67 126 130 246 140 267 18 34 41 48 53 29z m-731 -953 c353 -242 646
-445 652 -450 5 -5 -276 -9 -698 -9 -650 0 -708 1 -714 17 -7 17 82 857 92
873 3 6 11 10 16 10 5 0 299 -198 652 -441z m2499 112 c241 -128 286 -159 260
-175 -13 -8 -1012 -188 -1022 -184 -12 4 470 498 486 498 7 0 131 -63 276
-139z m725 -813 c11 -14 -77 -854 -91 -876 -4 -7 -11 -12 -16 -12 -7 0 -1293
880 -1308 895 -3 3 312 5 700 5 553 0 708 -3 715 -12z m-2592 -310 c-66 -68
-176 -180 -245 -250 -69 -71 -130 -128 -136 -128 -25 0 -539 279 -542 294 -2
9 3 19 12 22 21 8 976 182 1006 183 21 1 6 -19 -95 -121z m1283 -393 c78 -77
142 -145 142 -151 0 -23 -279 -539 -293 -542 -9 -2 -18 1 -21 6 -5 9 -186
1002 -186 1024 0 12 49 -34 358 -337z m-808 -1159 c-7 -7 -138 4 -408 33 -474
51 -472 50 -479 66 -2 7 197 306 444 665 l448 651 3 -702 c1 -467 -1 -706 -8
-713z"/>
</g>
</svg>
