<?xml version="1.0" standalone="no"?>
<!DOCTYPE svg PUBLIC "-//W3C//DTD SVG 20010904//EN"
 "http://www.w3.org/TR/2001/REC-SVG-20010904/DTD/svg10.dtd">
<svg version="1.0" xmlns="http://www.w3.org/2000/svg"
 width="3887.000000pt" height="1185.000000pt" viewBox="0 0 3887.000000 1185.000000"
 preserveAspectRatio="xMidYMid meet">
<metadata>
Created by potrace 1.15, written by Peter Selinger 2001-2017
</metadata>
<g transform="translate(0.000000,1185.000000) scale(0.100000,-0.100000)"
fill="#000000" stroke="none">
<path d="M0 5925 l0 -5925 19435 0 19435 0 0 5925 0 5925 -19435 0 -19435 0 0
-5925z m7988 3070 c376 -41 687 -77 693 -80 5 -4 9 -15 9 -27 0 -11 -327 -496
-727 -1078 l-728 -1059 -3 1146 c-1 838 1 1149 9 1159 6 8 23 14 38 14 14 0
333 -34 709 -75z m-1771 -683 c12 -8 318 -1664 311 -1683 -5 -14 -818 781
-818 800 0 20 448 872 464 883 14 10 28 10 43 0z m-1166 -1569 l1058 -728
-1146 -3 c-1003 -2 -1149 0 -1162 13 -13 13 -6 96 62 721 42 388 80 710 83
715 3 5 14 9 26 9 11 0 497 -327 1079 -727z m4039 198 c239 -126 439 -237 445
-245 27 -44 26 -44 -821 -197 -445 -80 -827 -149 -849 -153 -41 -8 -50 -18
680 731 50 51 95 93 100 93 6 0 206 -103 445 -229z m21272 -96 c552 -96 939
-578 915 -1140 -12 -289 -127 -547 -331 -743 -205 -196 -440 -297 -722 -309
-529 -22 -980 303 -1120 808 -32 116 -44 344 -24 467 24 152 87 312 175 447
49 75 222 249 295 297 134 87 279 145 432 173 100 18 278 18 380 0z m3636 0
c44 -9 108 -24 143 -36 87 -28 253 -111 314 -157 78 -59 76 -80 -28 -240 -46
-71 -95 -136 -108 -146 -35 -24 -69 -20 -126 19 -109 73 -254 135 -351 150
-100 16 -212 -47 -227 -126 -23 -124 75 -214 361 -334 314 -131 487 -286 560
-502 34 -99 38 -244 10 -338 -52 -174 -174 -319 -336 -398 -125 -61 -190 -78
-336 -84 -203 -9 -369 24 -539 107 -111 55 -215 138 -215 173 0 28 158 305
181 317 33 18 59 10 151 -45 167 -99 334 -143 438 -115 65 18 126 81 135 142
17 113 -60 216 -219 293 -50 23 -143 68 -207 98 -250 120 -405 279 -463 476
-21 70 -21 218 -1 296 50 192 205 354 400 420 134 45 319 57 463 30z m-17336
-32 c17 -15 18 -41 18 -415 l0 -398 440 0 440 0 0 399 c0 350 2 402 16 415 24
24 419 24 446 -1 17 -15 18 -61 18 -1056 0 -954 -1 -1042 -17 -1059 -15 -16
-35 -18 -222 -18 -113 0 -213 5 -221 10 -13 8 -16 71 -20 432 l-5 423 -437 3
-438 2 0 -417 c0 -373 -2 -418 -17 -435 -15 -16 -35 -18 -221 -18 -177 0 -208
2 -224 17 -17 15 -18 61 -18 1056 0 954 1 1042 17 1059 15 16 35 18 221 18
177 0 208 -2 224 -17z m4750 0 c16 -14 18 -35 18 -206 0 -163 -2 -193 -17
-209 -15 -17 -42 -18 -455 -18 l-438 0 0 -190 0 -190 362 0 c322 0 363 -2 380
-17 16 -14 18 -35 18 -206 0 -163 -2 -193 -17 -209 -15 -17 -40 -18 -380 -18
l-363 0 0 -210 0 -210 437 0 c392 0 438 -2 455 -17 16 -14 18 -35 18 -206 0
-163 -2 -193 -17 -209 -15 -17 -49 -18 -676 -18 -601 0 -662 2 -679 17 -17 15
-18 61 -18 1056 0 954 1 1042 17 1059 15 17 49 18 676 18 601 0 662 -2 679
-17z m2560 0 c17 -15 18 -55 18 -850 l0 -833 379 0 c332 0 382 -2 395 -16 24
-24 24 -389 -1 -416 -15 -17 -48 -18 -619 -18 -534 0 -604 2 -618 16 -14 14
-16 124 -16 1059 0 935 2 1045 16 1059 24 24 419 24 446 -1z m3230 0 c17 -15
18 -61 18 -1056 0 -954 -1 -1042 -17 -1059 -15 -16 -35 -18 -223 -18 -162 0
-210 3 -226 14 -19 14 -19 37 -19 1061 0 1024 0 1047 19 1061 16 11 64 14 225
14 176 0 207 -2 223 -17z m-16921 -1199 c11 -13 0 -129 -60 -692 -40 -372 -76
-693 -80 -712 -5 -26 -13 -36 -29 -38 -16 -2 -311 196 -1029 689 -555 381
-1032 710 -1062 731 l-54 38 1150 0 c1036 0 1152 -2 1164 -16z m-4052 -331
c-185 -198 -757 -780 -773 -787 -32 -12 -890 442 -894 474 -2 12 1 27 7 33 5
5 387 78 848 162 461 84 840 153 842 154 3 0 -11 -16 -30 -36z m1934 -825
c193 -188 227 -226 221 -243 -10 -25 -430 -822 -450 -852 -16 -25 -46 -30 -62
-10 -6 7 -76 377 -156 822 -81 446 -149 823 -152 840 -7 32 72 -41 599 -557z
m-1328 -1877 c-13 -13 -96 -6 -716 62 -408 44 -707 81 -715 88 -8 6 -14 18
-14 27 0 8 327 491 728 1073 l727 1058 3 -1146 c2 -1003 0 -1149 -13 -1162z"/>
<path d="M30120 6364 c-165 -26 -273 -77 -373 -177 -125 -126 -181 -260 -181
-437 0 -88 5 -118 28 -185 133 -386 583 -540 920 -314 236 157 330 451 231
715 -84 224 -295 381 -535 397 -36 3 -76 3 -90 1z"/>
</g>
</svg>
