<?xml version="1.0" encoding="iso-8859-1"?>
<!-- Generator: Adobe Illustrator 19.0.0, SVG Export Plug-In . SVG Version: 6.00 Build 0)  -->
<svg version="1.1" id="Capa_1" xmlns="http://www.w3.org/2000/svg" xmlns:xlink="http://www.w3.org/1999/xlink" x="0px" y="0px"
	 viewBox="0 0 512 512" style="enable-background:new 0 0 512 512;" xml:space="preserve">
<g>
	<g>
		<path d="M256,0C114.844,0,0,114.844,0,256s114.844,256,256,256s256-114.844,256-256S397.156,0,256,0z M370.208,178.208
			L228.417,320H288c5.896,0,10.667,4.771,10.667,10.667V352c0,5.896-4.771,10.667-10.667,10.667H160
			c-5.896,0-10.667-4.771-10.667-10.667V224c0-5.896,4.771-10.667,10.667-10.667h21.333c5.896,0,10.667,4.771,10.667,10.667v59.583
			l141.792-141.792c2.083-2.083,4.813-3.125,7.542-3.125c2.729,0,5.458,1.042,7.542,3.125l21.333,21.333
			C374.375,167.292,374.375,174.042,370.208,178.208z"/>
	</g>
</g>
<g>
</g>
<g>
</g>
<g>
</g>
<g>
</g>
<g>
</g>
<g>
</g>
<g>
</g>
<g>
</g>
<g>
</g>
<g>
</g>
<g>
</g>
<g>
</g>
<g>
</g>
<g>
</g>
<g>
</g>
</svg>
