<svg height="597pt" viewBox="-18 -20 597.33262 597" width="597pt" xmlns="http://www.w3.org/2000/svg"><path d="m13.769531 212.222656c.582031.371094 1.21875.628906 1.820313 1 1.207031.691406 2.460937 1.296875 3.75 1.8125.21875.078125.441406.125.660156.199219v-56.488281c-4.234375 1.507812-8.085938 3.929687-11.28125 7.097656-11.664062 11.761719-11.617188 30.746094.097656 42.460938 1.515625 1.46875 3.175782 2.785156 4.953125 3.917968zm0 0"/><path d="m560 437.019531v-80h-140v80zm-120-50h20v20h-20zm0 0"/><path d="m300 157.019531c-34.78125.046875-64.273438 25.582031-69.289062 60h138.582031c-5.015625-34.417969-34.507813-59.953125-69.292969-60zm0 0"/><path d="m560 237.019531h-530c-3.019531-.019531-6.03125-.3125-9-.878906-.941406-.167969-1.839844-.457031-2.769531-.6875-2-.46875-3.96875-1.0625-5.890625-1.78125-.996094-.382813-2-.820313-3-1.269531-1.792969-.820313-3.535156-1.753906-5.21875-2.777344-.910156-.5625-1.820313-1.089844-2.699219-1.710938-.421875-.320312-.972656-.550781-1.421875-.894531v300c0 16.574219 13.433594 30 30 30h530v-100h-150c-5.523438 0-10-4.476562-10-10v-100c0-5.519531 4.476562-10 10-10h150zm0 0"/><path d="m560 97.019531h-520v120h170.589844c5.226562-45.421875 43.6875-79.710937 89.410156-79.710937 45.726562 0 84.183594 34.289062 89.410156 79.710937h170.589844zm-430 40h-50v50h-20v-60c0-5.519531 4.476562-10 10-10h60zm410 50h-20v-50h-50v-20h60c5.523438 0 10 4.480469 10 10zm0 0"/><path d="m147.871094 77.019531h402.25l-15.28125-76.9374998zm0 0"/></svg>